<mxfile host="app.diagrams.net" agent="Mozilla/5.0 (Windows NT 10.0; Win64; x64) AppleWebKit/537.36 (KHTML, like Gecko) Chrome/127.0.0.0 Safari/537.36" version="24.7.6">
  <diagram name="企业权限系统设计" id="48HeeAEQc3j6dzJv_rDW">
    <mxGraphModel dx="1500" dy="746" grid="0" gridSize="10" guides="1" tooltips="1" connect="1" arrows="1" fold="1" page="1" pageScale="1" pageWidth="1169" pageHeight="827" math="0" shadow="0">
      <root>
        <mxCell id="0" />
        <mxCell id="1" parent="0" />
        <mxCell id="DIW065KW8rdVT469l_Ss-8" style="edgeStyle=orthogonalEdgeStyle;rounded=0;orthogonalLoop=1;jettySize=auto;html=1;entryX=0.5;entryY=1;entryDx=0;entryDy=0;" edge="1" parent="1" source="DIW065KW8rdVT469l_Ss-1" target="DIW065KW8rdVT469l_Ss-3">
          <mxGeometry relative="1" as="geometry" />
        </mxCell>
        <mxCell id="DIW065KW8rdVT469l_Ss-17" value="1..N" style="edgeLabel;html=1;align=center;verticalAlign=middle;resizable=0;points=[];" vertex="1" connectable="0" parent="DIW065KW8rdVT469l_Ss-8">
          <mxGeometry x="-0.0113" relative="1" as="geometry">
            <mxPoint y="2" as="offset" />
          </mxGeometry>
        </mxCell>
        <mxCell id="DIW065KW8rdVT469l_Ss-37" style="edgeStyle=orthogonalEdgeStyle;rounded=0;orthogonalLoop=1;jettySize=auto;html=1;entryX=0;entryY=0.5;entryDx=0;entryDy=0;" edge="1" parent="1" source="DIW065KW8rdVT469l_Ss-1" target="DIW065KW8rdVT469l_Ss-2">
          <mxGeometry relative="1" as="geometry" />
        </mxCell>
        <mxCell id="DIW065KW8rdVT469l_Ss-38" value="N..N" style="edgeLabel;html=1;align=center;verticalAlign=middle;resizable=0;points=[];" vertex="1" connectable="0" parent="DIW065KW8rdVT469l_Ss-37">
          <mxGeometry x="-0.1564" y="-1" relative="1" as="geometry">
            <mxPoint as="offset" />
          </mxGeometry>
        </mxCell>
        <mxCell id="DIW065KW8rdVT469l_Ss-1" value="sys_user_info&lt;div&gt;系统用户表&lt;/div&gt;" style="rounded=1;whiteSpace=wrap;html=1;fillColor=#dae8fc;strokeColor=#6c8ebf;" vertex="1" parent="1">
          <mxGeometry x="134" y="400" width="120" height="60" as="geometry" />
        </mxCell>
        <mxCell id="DIW065KW8rdVT469l_Ss-2" value="sys_role&lt;div&gt;角色表&lt;/div&gt;" style="rounded=1;whiteSpace=wrap;html=1;fillColor=#dae8fc;strokeColor=#6c8ebf;" vertex="1" parent="1">
          <mxGeometry x="410" y="400" width="120" height="60" as="geometry" />
        </mxCell>
        <mxCell id="DIW065KW8rdVT469l_Ss-39" style="edgeStyle=orthogonalEdgeStyle;rounded=0;orthogonalLoop=1;jettySize=auto;html=1;entryX=0.5;entryY=0;entryDx=0;entryDy=0;" edge="1" parent="1" source="DIW065KW8rdVT469l_Ss-3" target="DIW065KW8rdVT469l_Ss-2">
          <mxGeometry relative="1" as="geometry" />
        </mxCell>
        <mxCell id="DIW065KW8rdVT469l_Ss-43" style="edgeStyle=orthogonalEdgeStyle;rounded=0;orthogonalLoop=1;jettySize=auto;html=1;entryX=0.5;entryY=0;entryDx=0;entryDy=0;" edge="1" parent="1" source="DIW065KW8rdVT469l_Ss-3" target="DIW065KW8rdVT469l_Ss-6">
          <mxGeometry relative="1" as="geometry" />
        </mxCell>
        <mxCell id="DIW065KW8rdVT469l_Ss-44" value="N..N" style="edgeLabel;html=1;align=center;verticalAlign=middle;resizable=0;points=[];" vertex="1" connectable="0" parent="DIW065KW8rdVT469l_Ss-43">
          <mxGeometry x="0.7693" relative="1" as="geometry">
            <mxPoint y="2" as="offset" />
          </mxGeometry>
        </mxCell>
        <mxCell id="DIW065KW8rdVT469l_Ss-3" value="sys_dept&lt;div&gt;部门表&lt;/div&gt;" style="rounded=1;whiteSpace=wrap;html=1;fillColor=#f8cecc;strokeColor=#b85450;" vertex="1" parent="1">
          <mxGeometry x="134" y="198" width="120" height="60" as="geometry" />
        </mxCell>
        <mxCell id="DIW065KW8rdVT469l_Ss-40" style="edgeStyle=orthogonalEdgeStyle;rounded=0;orthogonalLoop=1;jettySize=auto;html=1;" edge="1" parent="1" source="DIW065KW8rdVT469l_Ss-4" target="DIW065KW8rdVT469l_Ss-2">
          <mxGeometry relative="1" as="geometry" />
        </mxCell>
        <mxCell id="DIW065KW8rdVT469l_Ss-42" value="N..N" style="edgeLabel;html=1;align=center;verticalAlign=middle;resizable=0;points=[];" vertex="1" connectable="0" parent="DIW065KW8rdVT469l_Ss-40">
          <mxGeometry x="0.374" y="1" relative="1" as="geometry">
            <mxPoint y="10" as="offset" />
          </mxGeometry>
        </mxCell>
        <mxCell id="DIW065KW8rdVT469l_Ss-41" style="edgeStyle=orthogonalEdgeStyle;rounded=0;orthogonalLoop=1;jettySize=auto;html=1;entryX=0.5;entryY=0;entryDx=0;entryDy=0;" edge="1" parent="1" source="DIW065KW8rdVT469l_Ss-4" target="DIW065KW8rdVT469l_Ss-3">
          <mxGeometry relative="1" as="geometry" />
        </mxCell>
        <mxCell id="DIW065KW8rdVT469l_Ss-4" value="sys_role_dept&lt;div&gt;角色部门关联表&lt;/div&gt;" style="rounded=1;whiteSpace=wrap;html=1;fillColor=#fff2cc;strokeColor=#d6b656;" vertex="1" parent="1">
          <mxGeometry x="410" y="85" width="120" height="60" as="geometry" />
        </mxCell>
        <mxCell id="DIW065KW8rdVT469l_Ss-35" style="edgeStyle=orthogonalEdgeStyle;rounded=0;orthogonalLoop=1;jettySize=auto;html=1;entryX=0.5;entryY=1;entryDx=0;entryDy=0;" edge="1" parent="1" source="DIW065KW8rdVT469l_Ss-5" target="DIW065KW8rdVT469l_Ss-1">
          <mxGeometry relative="1" as="geometry" />
        </mxCell>
        <mxCell id="DIW065KW8rdVT469l_Ss-36" style="edgeStyle=orthogonalEdgeStyle;rounded=0;orthogonalLoop=1;jettySize=auto;html=1;entryX=0.5;entryY=1;entryDx=0;entryDy=0;" edge="1" parent="1" source="DIW065KW8rdVT469l_Ss-5" target="DIW065KW8rdVT469l_Ss-2">
          <mxGeometry relative="1" as="geometry" />
        </mxCell>
        <mxCell id="DIW065KW8rdVT469l_Ss-5" value="sys_user_role&lt;div&gt;用户角色关联表&lt;/div&gt;" style="rounded=1;whiteSpace=wrap;html=1;fillColor=#fff2cc;strokeColor=#d6b656;" vertex="1" parent="1">
          <mxGeometry x="272" y="550" width="120" height="60" as="geometry" />
        </mxCell>
        <mxCell id="DIW065KW8rdVT469l_Ss-6" value="sys_resources&lt;div&gt;资源表(权限)&lt;/div&gt;&lt;div&gt;菜单、按钮、文件、数据&lt;/div&gt;" style="rounded=1;whiteSpace=wrap;html=1;fillColor=#dae8fc;strokeColor=#6c8ebf;" vertex="1" parent="1">
          <mxGeometry x="686" y="400" width="148" height="60" as="geometry" />
        </mxCell>
        <mxCell id="DIW065KW8rdVT469l_Ss-45" style="edgeStyle=orthogonalEdgeStyle;rounded=0;orthogonalLoop=1;jettySize=auto;html=1;entryX=0.5;entryY=1;entryDx=0;entryDy=0;" edge="1" parent="1" source="DIW065KW8rdVT469l_Ss-7" target="DIW065KW8rdVT469l_Ss-2">
          <mxGeometry relative="1" as="geometry" />
        </mxCell>
        <mxCell id="DIW065KW8rdVT469l_Ss-46" style="edgeStyle=orthogonalEdgeStyle;rounded=0;orthogonalLoop=1;jettySize=auto;html=1;entryX=0.5;entryY=1;entryDx=0;entryDy=0;" edge="1" parent="1" source="DIW065KW8rdVT469l_Ss-7" target="DIW065KW8rdVT469l_Ss-6">
          <mxGeometry relative="1" as="geometry" />
        </mxCell>
        <mxCell id="DIW065KW8rdVT469l_Ss-7" value="sys_role_res&lt;div&gt;角色资源关联表&lt;/div&gt;" style="rounded=1;whiteSpace=wrap;html=1;fillColor=#fff2cc;strokeColor=#d6b656;" vertex="1" parent="1">
          <mxGeometry x="548" y="550" width="120" height="60" as="geometry" />
        </mxCell>
        <mxCell id="DIW065KW8rdVT469l_Ss-10" style="edgeStyle=orthogonalEdgeStyle;rounded=0;orthogonalLoop=1;jettySize=auto;html=1;entryX=1;entryY=0.75;entryDx=0;entryDy=0;" edge="1" parent="1" source="DIW065KW8rdVT469l_Ss-3" target="DIW065KW8rdVT469l_Ss-3">
          <mxGeometry relative="1" as="geometry">
            <Array as="points">
              <mxPoint x="274" y="214" />
              <mxPoint x="274" y="243" />
            </Array>
          </mxGeometry>
        </mxCell>
        <mxCell id="DIW065KW8rdVT469l_Ss-19" value="" style="shape=table;startSize=0;container=1;collapsible=0;childLayout=tableLayout;fontSize=16;fillColor=#e1d5e7;strokeColor=#9673a6;" vertex="1" parent="1">
          <mxGeometry x="548" y="400" width="35" height="60" as="geometry" />
        </mxCell>
        <mxCell id="DIW065KW8rdVT469l_Ss-20" value="" style="shape=tableRow;horizontal=0;startSize=0;swimlaneHead=0;swimlaneBody=0;strokeColor=inherit;top=0;left=0;bottom=0;right=0;collapsible=0;dropTarget=0;fillColor=none;points=[[0,0.5],[1,0.5]];portConstraint=eastwest;fontSize=16;" vertex="1" parent="DIW065KW8rdVT469l_Ss-19">
          <mxGeometry width="35" height="20" as="geometry" />
        </mxCell>
        <mxCell id="DIW065KW8rdVT469l_Ss-21" value="admin" style="shape=partialRectangle;html=1;whiteSpace=wrap;connectable=0;strokeColor=inherit;overflow=hidden;fillColor=none;top=0;left=0;bottom=0;right=0;pointerEvents=1;fontSize=10;" vertex="1" parent="DIW065KW8rdVT469l_Ss-20">
          <mxGeometry width="35" height="20" as="geometry">
            <mxRectangle width="35" height="20" as="alternateBounds" />
          </mxGeometry>
        </mxCell>
        <mxCell id="DIW065KW8rdVT469l_Ss-24" value="" style="shape=tableRow;horizontal=0;startSize=0;swimlaneHead=0;swimlaneBody=0;strokeColor=inherit;top=0;left=0;bottom=0;right=0;collapsible=0;dropTarget=0;fillColor=none;points=[[0,0.5],[1,0.5]];portConstraint=eastwest;fontSize=16;" vertex="1" parent="DIW065KW8rdVT469l_Ss-19">
          <mxGeometry y="20" width="35" height="20" as="geometry" />
        </mxCell>
        <mxCell id="DIW065KW8rdVT469l_Ss-25" value="dev" style="shape=partialRectangle;html=1;whiteSpace=wrap;connectable=0;strokeColor=inherit;overflow=hidden;fillColor=none;top=0;left=0;bottom=0;right=0;pointerEvents=1;fontSize=10;" vertex="1" parent="DIW065KW8rdVT469l_Ss-24">
          <mxGeometry width="35" height="20" as="geometry">
            <mxRectangle width="35" height="20" as="alternateBounds" />
          </mxGeometry>
        </mxCell>
        <mxCell id="DIW065KW8rdVT469l_Ss-28" value="" style="shape=tableRow;horizontal=0;startSize=0;swimlaneHead=0;swimlaneBody=0;strokeColor=inherit;top=0;left=0;bottom=0;right=0;collapsible=0;dropTarget=0;fillColor=none;points=[[0,0.5],[1,0.5]];portConstraint=eastwest;fontSize=16;" vertex="1" parent="DIW065KW8rdVT469l_Ss-19">
          <mxGeometry y="40" width="35" height="20" as="geometry" />
        </mxCell>
        <mxCell id="DIW065KW8rdVT469l_Ss-29" value="test" style="shape=partialRectangle;html=1;whiteSpace=wrap;connectable=0;strokeColor=inherit;overflow=hidden;fillColor=none;top=0;left=0;bottom=0;right=0;pointerEvents=1;fontSize=10;" vertex="1" parent="DIW065KW8rdVT469l_Ss-28">
          <mxGeometry width="35" height="20" as="geometry">
            <mxRectangle width="35" height="20" as="alternateBounds" />
          </mxGeometry>
        </mxCell>
        <mxCell id="DIW065KW8rdVT469l_Ss-48" style="edgeStyle=orthogonalEdgeStyle;rounded=0;orthogonalLoop=1;jettySize=auto;html=1;entryX=0.5;entryY=1;entryDx=0;entryDy=0;" edge="1" parent="1" source="DIW065KW8rdVT469l_Ss-47" target="DIW065KW8rdVT469l_Ss-1">
          <mxGeometry relative="1" as="geometry" />
        </mxCell>
        <mxCell id="DIW065KW8rdVT469l_Ss-49" style="edgeStyle=orthogonalEdgeStyle;rounded=0;orthogonalLoop=1;jettySize=auto;html=1;" edge="1" parent="1" source="DIW065KW8rdVT469l_Ss-47" target="DIW065KW8rdVT469l_Ss-6">
          <mxGeometry relative="1" as="geometry" />
        </mxCell>
        <mxCell id="DIW065KW8rdVT469l_Ss-47" value="sys_user_res&lt;div&gt;用户资源关联表&lt;/div&gt;" style="rounded=1;whiteSpace=wrap;html=1;fillColor=#fff2cc;strokeColor=#d6b656;" vertex="1" parent="1">
          <mxGeometry x="410" y="668" width="120" height="60" as="geometry" />
        </mxCell>
      </root>
    </mxGraphModel>
  </diagram>
</mxfile>
